<svg xmlns="http://www.w3.org/2000/svg" version="1.1" xmlns:xlink="http://www.w3.org/1999/xlink" width="512" height="512" x="0" y="0" viewBox="0 0 100 100" style="enable-background:new 0 0 512 512" xml:space="preserve" class=""><g><path fill="#efb100" d="M66.67 26.667a6.665 6.665 0 0 1 6.662 6.666v30.443a13.352 13.352 0 0 1 3.336-.438c1.152 0 2.265.162 3.332.438V33.333C80 25.974 74.033 20 66.67 20H54.713l5.283-5.286L55.283 10 44.31 20.977a3.333 3.333 0 0 0 0 4.714l10.978 10.978L60 31.953l-5.287-5.286zM23.334 36.669a13.27 13.27 0 0 1-3.333-.438v27.544c1.067-.275 2.18-.438 3.333-.438s2.266.162 3.333.438V36.231c-1.067.276-2.18.438-3.333.438z" opacity="1" data-original="#ffc00e" class=""></path><path fill="#f68e1e" d="M26.667 63.775v-4.113a17.367 17.367 0 0 0-6.666 0v4.113a13.322 13.322 0 0 1 3.333-.438c1.153.001 2.266.163 3.333.438zM80 63.775v-4.113a17.351 17.351 0 0 0-6.667 0v4.113a13.33 13.33 0 0 1 3.334-.438c1.152.001 2.266.163 3.333.438z" opacity="1" data-original="#f68e1e" class=""></path><path fill="#fceaed" d="M76.668 70.004a6.666 6.666 0 1 0 0 13.332 6.663 6.663 0 0 0 6.667-6.666 6.666 6.666 0 0 0-6.667-6.666z" opacity="1" data-original="#fceaed" class=""></path><path fill="#e53a34" d="M76.668 63.338c-7.363 0-13.333 5.969-13.333 13.332 0 7.371 5.97 13.33 13.333 13.33S90 84.041 90 76.67c0-7.363-5.969-13.332-13.332-13.332zm0 19.998a6.666 6.666 0 1 1 0-13.332 6.666 6.666 0 0 1 6.667 6.666 6.664 6.664 0 0 1-6.667 6.666z" opacity="1" data-original="#e53a34" class=""></path><path fill="#f9ccd2" d="M72.829 79.498a6.663 6.663 0 0 1 9.745-5.908 6.662 6.662 0 0 0-12.573 3.08 6.657 6.657 0 0 0 3.585 5.91 6.63 6.63 0 0 1-.757-3.082z" opacity="1" data-original="#f9ccd2"></path><path fill="#f68e1e" d="M20 36.231v4.113a17.36 17.36 0 0 0 3.333.325c1.141 0 2.254-.114 3.333-.325v-4.113c-1.067.276-2.181.438-3.333.438s-2.266-.162-3.333-.438z" opacity="1" data-original="#f68e1e" class=""></path><path fill="#fceaed" d="M23.334 70.004a6.666 6.666 0 1 0 0 13.332A6.663 6.663 0 0 0 30 76.67a6.665 6.665 0 0 0-6.666-6.666z" opacity="1" data-original="#fceaed" class=""></path><path fill="#e53a34" d="M23.334 63.338c-7.363 0-13.333 5.969-13.333 13.332 0 7.371 5.97 13.33 13.333 13.33s13.332-5.959 13.332-13.33c0-7.363-5.969-13.332-13.332-13.332zm0 19.998A6.666 6.666 0 1 1 30 76.67a6.663 6.663 0 0 1-6.666 6.666z" opacity="1" data-original="#e53a34" class=""></path><circle cx="23.333" cy="23.334" r="6.667" fill="#f1f7e9" opacity="1" data-original="#f1f7e9"></circle><path fill="#7cb342" d="M23.334 10.002C15.971 10.002 10 15.971 10 23.334c0 7.365 5.971 13.335 13.334 13.335s13.333-5.973 13.333-13.335c0-7.36-5.97-13.332-13.333-13.332zm0 20a6.667 6.667 0 1 1 0-13.335 6.667 6.667 0 0 1 0 13.335z" opacity="1" data-original="#7cb342" class=""></path><path fill="#f9ccd2" d="M19.495 79.498a6.663 6.663 0 0 1 9.746-5.908 6.663 6.663 0 0 0-12.574 3.08 6.659 6.659 0 0 0 3.585 5.91 6.643 6.643 0 0 1-.757-3.082z" opacity="1" data-original="#f9ccd2"></path><path fill="#dbebc7" d="M19.495 26.165a6.664 6.664 0 0 1 9.746-5.91 6.664 6.664 0 0 0-12.574 3.081 6.66 6.66 0 0 0 3.585 5.91 6.642 6.642 0 0 1-.757-3.081z" opacity="1" data-original="#dbebc7" class=""></path></g></svg>